<svg width="26" height="24" viewBox="0 0 26 24" xmlns="http://www.w3.org/2000/svg" fill="currentColor">
<path d="M14.5958 1.54476C14.4349 1.26455 14.203 1.03175 13.9233 0.869856C13.6437 0.707962 13.3264 0.622711 13.0033 0.622711C12.6802 0.622711 12.3628 0.707962 12.0832 0.869856C11.8036 1.03175 11.5716 1.26455 11.4108 1.54476L0.268129 20.5036C-0.474496 21.7679 0.416004 23.375 1.86063 23.375H24.1443C25.5889 23.375 26.481 21.7663 25.7368 20.5036L14.5958 1.54476ZM13 7.12501C13.8694 7.12501 14.5503 7.87576 14.4625 8.74189L13.8938 14.4408C13.8746 14.6646 13.7722 14.8732 13.6067 15.0252C13.4412 15.1771 13.2247 15.2615 13 15.2615C12.7753 15.2615 12.5588 15.1771 12.3933 15.0252C12.2278 14.8732 12.1254 14.6646 12.1063 14.4408L11.5375 8.74189C11.5171 8.53752 11.5397 8.33113 11.6039 8.13603C11.6681 7.94093 11.7724 7.76144 11.9102 7.60912C12.048 7.4568 12.2161 7.33503 12.4038 7.25165C12.5915 7.16827 12.7946 7.12513 13 7.12501ZM13.0033 16.875C13.4342 16.875 13.8476 17.0462 14.1523 17.351C14.457 17.6557 14.6283 18.069 14.6283 18.5C14.6283 18.931 14.457 19.3443 14.1523 19.6491C13.8476 19.9538 13.4342 20.125 13.0033 20.125C12.5723 20.125 12.159 19.9538 11.8542 19.6491C11.5495 19.3443 11.3783 18.931 11.3783 18.5C11.3783 18.069 11.5495 17.6557 11.8542 17.351C12.159 17.0462 12.5723 16.875 13.0033 16.875Z" />
</svg>
